# xmcd
#
# Track frame offsets:
#	150
#	11348
#	21690
#	34128
#	46480
#	58217
#	71069
#	84058
#	95911
#	108087
#	120135
#	132656
#	145198
#	157964
#	168114
#	181144
#	193310
#	205854
#	218075
#	230513
#	242648
#	254293
#	266449
#	278833
#	291342
#	304625
#
# Disc length: 4214 seconds
#
# Revision: 1
# Processed by: cddbd v1.5.2PL0 Copyright (c) Steve Scherf et al.
# Submitted via: EasyCDDAExtractor 15.3.0.1
#
DISCID=7510741a
DTITLE=Roy Acuff - cd2_Beautiful Brown Eyes
DYEAR=1900
DGENRE=Country
TTITLE0=Answer To Sparkling Eyes
TTITLE1=Fly Birdie Fly
TTITLE2=Ida Red
TTITLE3=Beautiful Brown Eyes
TTITLE4=Mother's Prayers Guide Me
TTITLE5=Living On The Mountain Baby Mine
TTITLE6=A Vagabond's Prayer
TTITLE7=Old Age Pension Cheque
TTITLE8=Eyes Watching You
TTITLE9=I'm Building A Home
TTITLE10=Walkin' In My Sleep
TTITLE11=Drifting Too Far From Shore
TTITLE12=Come Back Little Pal
TTITLE13=Will The Circle Be Unbroken
TTITLE14=When I Lay My Burden Down
TTITLE15=The Streamlined Cannonball
TTITLE16=Weary River
TTITLE17=The Broken Heart
TTITLE18=The Precious Jewel
TTITLE19=Mule Skinner Blues
TTITLE20=Just To Ease My Worried Mind
TTITLE21=Be Honest With Me
TTITLE22=Worried Mind
TTITLE23=It Won't Be Long (Til I'm Leaving)
TTITLE24=I Know You're Saying Goodbye
TTITLE25=Brother Take Warning
EXTD=
EXTT0=
EXTT1=
EXTT2=
EXTT3=
EXTT4=
EXTT5=
EXTT6=
EXTT7=
EXTT8=
EXTT9=
EXTT10=
EXTT11=
EXTT12=
EXTT13=
EXTT14=
EXTT15=
EXTT16=
EXTT17=
EXTT18=
EXTT19=
EXTT20=
EXTT21=
EXTT22=
EXTT23=
EXTT24=
EXTT25=
PLAYORDER=
